<?xml version="1.0" encoding="UTF-8"?>
<svg xmlns="http://www.w3.org/2000/svg" xml:space="preserve" width="53px" height="29px" version="1.1" style="shape-rendering:geometricPrecision; text-rendering:geometricPrecision; image-rendering:optimizeQuality; fill-rule:evenodd; clip-rule:evenodd"
viewBox="0 0 1.96 1.07"
 xmlns:xlink="http://www.w3.org/1999/xlink">
 <defs>
  <style type="text/css">
   <![CDATA[
    .fil0 {fill:#522A22;fill-rule:nonzero}
   ]]>
  </style>
 </defs>
 <g id="Слой_x0020_1">
  <metadata id="CorelCorpID_0Corel-Layer"/>
  <path id="EYE" class="fil0" d="M1.88 0.54c-0.1,-0.14 -0.23,-0.26 -0.38,-0.34 -0.16,-0.08 -0.33,-0.13 -0.52,-0.13 -0.19,0 -0.36,0.05 -0.51,0.13 -0.16,0.08 -0.29,0.2 -0.39,0.34 0.1,0.14 0.23,0.25 0.39,0.33 0.15,0.09 0.32,0.13 0.51,0.13 0.19,0 0.36,-0.04 0.52,-0.13 0.15,-0.08 0.28,-0.19 0.38,-0.33zm-0.35 -0.4c0.17,0.09 0.31,0.22 0.42,0.38l0.01 0.02 -0.01 0.02c-0.11,0.15 -0.25,0.29 -0.42,0.38 -0.16,0.08 -0.35,0.13 -0.55,0.13 -0.2,0 -0.38,-0.05 -0.55,-0.13 -0.17,-0.09 -0.31,-0.23 -0.42,-0.38l-0.01 -0.02 0.01 -0.02c0.11,-0.16 0.25,-0.29 0.42,-0.38 0.17,-0.09 0.35,-0.14 0.55,-0.14 0.2,0 0.39,0.05 0.55,0.14zm-0.2 0.38c0,-0.09 -0.04,-0.18 -0.1,-0.24 -0.07,-0.07 -0.15,-0.11 -0.25,-0.11 -0.09,0 -0.18,0.04 -0.24,0.11 -0.07,0.06 -0.11,0.15 -0.11,0.24 0,0.1 0.04,0.18 0.11,0.25 0.06,0.06 0.15,0.1 0.24,0.1 0.1,0 0.18,-0.04 0.25,-0.1 0.06,-0.07 0.1,-0.15 0.1,-0.25zm-0.05 -0.29c0.07,0.07 0.12,0.18 0.12,0.29 0,0.12 -0.05,0.22 -0.12,0.3 -0.08,0.07 -0.18,0.12 -0.3,0.12 -0.11,0 -0.22,-0.05 -0.29,-0.12 -0.08,-0.08 -0.13,-0.18 -0.13,-0.3 0,-0.11 0.05,-0.22 0.13,-0.29 0.07,-0.08 0.18,-0.13 0.29,-0.13 0.12,0 0.22,0.05 0.3,0.13zm-0.23 0.29c0,-0.02 -0.01,-0.04 -0.02,-0.05 -0.01,-0.01 -0.03,-0.02 -0.05,-0.02 -0.02,0 -0.03,0.01 -0.05,0.02 -0.01,0.01 -0.02,0.03 -0.02,0.05 0,0.02 0.01,0.04 0.02,0.05 0.02,0.01 0.03,0.02 0.05,0.02 0.02,0 0.04,-0.01 0.05,-0.02 0.01,-0.01 0.02,-0.03 0.02,-0.05zm0.03 -0.1c0.03,0.03 0.04,0.06 0.04,0.1 0,0.04 -0.01,0.07 -0.04,0.1 -0.03,0.02 -0.06,0.04 -0.1,0.04 -0.04,0 -0.07,-0.01 -0.1,-0.04 -0.02,-0.03 -0.04,-0.06 -0.04,-0.1 0,-0.04 0.02,-0.07 0.04,-0.1 0.03,-0.02 0.06,-0.04 0.1,-0.04 0.04,0 0.08,0.02 0.1,0.04zm-0.1 -0.18c0.02,0 0.04,0.02 0.04,0.04 0,0.02 -0.02,0.03 -0.04,0.03 -0.06,0 -0.11,0.03 -0.15,0.06 -0.03,0.04 -0.06,0.09 -0.06,0.15 0,0.02 -0.01,0.04 -0.03,0.04 -0.02,0 -0.04,-0.02 -0.04,-0.04 0,-0.08 0.03,-0.14 0.09,-0.2 0.05,-0.05 0.12,-0.08 0.19,-0.08z"/>
 </g>
</svg>
